#!OML:ASF I:\Actors\actors\Patient Classification 1\Patient 1\Session 1\Subject1.ASF
:FULLY-SPECIFIED
:DEGREES
405
root 0.217534 18.5696 8.65276 8.35581 18.6211 -7.77066
lowerback -1.68091 5.27985 5.36794
upperback -5.19948 7.12423 -0.534331
thorax -3.73609 3.36321 -3.60232
lowerneck 3.30705 8.70964 8.64832
upperneck 27.1953 11.7586 2.41325
head 8.35646 6.78539 0.138363
rclavicle -6.57915e-014 -2.14687e-014
rhumerus -35.2759 16.8068 -80.6883
rradius 147.28
rwrist -45.9255
rhand 61.4022 -64.4153
rfingers 7.12502
rthumb 74.846 -26.9458
lclavicle -6.57915e-014 -2.14687e-014
lhumerus -46.8286 -24.1699 94.6203
lradius 145.079
lwrist 48.8746
lhand 69.8269 -12.5885
lfingers 7.12502
lthumb 73.7051 -440.122
rfemur 0 0 0
rtibia 0
rfoot 0 0
rtoes 0
lfemur -23.0023 -45.575 1.5446
ltibia 24.2667
lfoot -27.3425 39.2055
ltoes -59.6855
406
root 0.212608 18.5674 8.65433 8.27107 18.4653 -7.73921
lowerback -1.57615 5.33504 5.11455
upperback -5.10222 7.19888 -0.500015
thorax -3.71831 3.41228 -3.4338
lowerneck 3.54334 8.67298 8.53091
upperneck 26.7067 11.7115 2.45189
head 8.13207 6.74419 0.133764
rclavicle 1.10002e-013 8.74653e-015
rhumerus -35.9544 12.3558 -84.3254
rradius 147.368
rwrist -45.448
rhand 62.2018 -65.0513
rfingers 7.12502
rthumb 74.9304 -24.6369
lclavicle 1.10002e-013 8.74653e-015
lhumerus -47.7555 -20.3891 97.6068
lradius 145.068
lwrist 48.4842
lhand 70.8995 -12.1328
lfingers 7.12502
lthumb 73.2655 -442.967
rfemur 0 0 0
rtibia 0
rfoot 0 0
rtoes 0
lfemur -22.7894 -45.6676 1.37307
ltibia 24.2891
lfoot -27.4684 39.3789
ltoes -59.7141
407
root 0.207945 18.5631 8.65688 8.1493 18.3113 -7.74308
lowerback -1.4165 5.37932 4.90266
upperback -5.0245 7.26411 -0.435494
thorax -3.75289 3.45345 -3.2646
lowerneck 3.7231 8.66433 8.30142
upperneck 26.2527 11.6965 2.52099
head 7.9219 6.71096 0.162542
rclavicle -1.71824e-014 -9.54166e-015
rhumerus -36.338 7.42226 -87.7229
rradius 147.334
rwrist -45.5984
rhand 62.7754 -66.285
rfingers 7.12502
rthumb 74.9656 -23.7414
lclavicle -1.71824e-014 -9.54166e-015
lhumerus -48.1556 -15.9747 100.227
lradius 145.037
lwrist 48.5358
lhand 72.6703 -10.8615
lfingers 7.12502
lthumb 72.4235 -446.746
rfemur 0 0 0
rtibia 0
rfoot 0 0
rtoes 0
lfemur -22.5296 -45.8014 1.21054
ltibia 24.3038
lfoot -27.6879 39.5509
ltoes -59.6813
408
root 0.204846 18.5559 8.66049 8.02861 18.1768 -7.68842
lowerback -1.28246 5.41821 4.658
upperback -4.96226 7.31906 -0.40821
thorax -3.78993 3.4897 -3.11449
lowerneck 4.18938 8.59899 8.38626
upperneck 25.6493 11.6754 2.32426
head 7.65312 6.68083 0.0385387
rclavicle 6.52262e-015 -2.22639e-014
rhumerus -36.4473 2.25055 -90.6444
rradius 147.19
rwrist -46.661
rhand 62.9831 -67.8481
rfingers 7.12502
rthumb 74.9731 -24.5314
lclavicle 6.52262e-015 -2.22639e-014
lhumerus -48.0553 -11.2855 102.108
lradius 145.085
lwrist 49.4878
lhand 74.9145 -8.75276
lfingers 7.12502
lthumb 71.1759 -269.683
rfemur 0 0 0
rtibia 0
rfoot 0 0
rtoes 0
lfemur -22.29 -46.2289 1.03115
ltibia 24.3247
lfoot -28.134 39.8988
ltoes -59.5588
409
root 0.202381 18.5467 8.66692 7.8913 18.0484 -7.60706
lowerback -1.18492 5.50859 4.44252
upperback -4.90932 7.43849 -0.453857
thorax -3.79875 3.5565 -3.05136
lowerneck 4.24633 8.55098 8.38526
upperneck 25.3925 11.6092 2.32648
head 7.55336 6.64357 0.0230862
rclavicle 3.04389e-014 1.19271e-014
rhumerus -36.5373 -2.34645 -93.0552
rradius 146.971
rwrist -48.3434
rhand 62.8345 -68.4949
rfingers 7.12502
rthumb 74.968 -25.7315
lclavicle 3.04389e-014 1.19271e-014
lhumerus -47.3282 -6.33338 103.77
lradius 144.412
lwrist 50.8361
lhand 78.8319 -7.06083
lfingers 7.12502
lthumb 68.6179 -263.242
rfemur 0 0 0
rtibia 0
rfoot 0 0
rtoes 0
lfemur -22.0422 -46.954 0.849219
ltibia 24.3517
lfoot -28.756 40.4962
ltoes -59.4281
410
root 0.201004 18.5382 8.67297 7.62276 17.8891 -7.57168
lowerback -0.969981 5.62329 4.27778
upperback -4.834 7.59716 -0.460588
thorax -3.84704 3.64051 -2.98796
lowerneck 4.16386 8.46718 8.36157
upperneck 25.3744 11.4574 2.46874
head 7.54568 6.57998 0.0659308
rclavicle 4.97334e-014 -7.95139e-016
rhumerus -36.7437 -5.61185 -94.9781
rradius 146.828
rwrist -50.3643
rhand 62.3233 -68.8601
rfingers 7.12502
rthumb 74.9396 -27.9954
lclavicle 4.97334e-014 -7.95139e-016
lhumerus -47.0369 -3.13337 104.99
lradius 144.192
lwrist 52.3996
lhand 80.9905 -6.01897
lfingers 7.12502
lthumb 67.0072 -260.78
rfemur 0 0 0
rtibia 0
rfoot 0 0
rtoes 0
lfemur -21.5887 -47.7181 0.554095
ltibia 24.3812
lfoot -29.3457 41.1389
ltoes -59.3515
411
root 0.203937 18.533 8.66658 7.26099 17.7325 -7.51855
lowerback -0.518094 5.77323 4.27366
upperback -4.79841 7.81605 -0.536629
thorax -4.03707 3.74218 -3.1129
lowerneck 4.28011 8.24361 8.39608
upperneck 25.2616 11.1098 2.71013
head 7.46473 6.43551 0.105622
rclavicle 5.72748e-015 -1.90833e-014
rhumerus -37.4856 -4.12595 -95.5043
rradius 146.472
rwrist -50.8227
rhand 61.7251 -67.0335
rfingers 7.12502
rthumb 74.885 -28.3787
lclavicle 5.72748e-015 -1.90833e-014
lhumerus -47.3762 -2.3088 105.816
lradius 144.376
lwrist 53.7801
lhand 81.2615 -5.89692
lfingers 7.12502
lthumb 66.7985 -260.499
rfemur 0 0 0
rtibia 0
rfoot 0 0
rtoes 0
lfemur -21.0205 -48.2895 0.0970216
ltibia 24.426
lfoot -29.7951 41.5434
ltoes -59.2595
412
root 0.207782 18.5332 8.64823 6.95877 17.6195 -7.60349
lowerback -0.121127 5.94761 4.54183
upperback -4.78733 8.07096 -0.647985
thorax -4.17837 3.85201 -3.41804
lowerneck 3.9817 8.04819 8.14605
upperneck 25.5875 10.709 3.27477
head 7.56424 6.27643 0.324953
rclavicle -3.44022e-014 1.90833e-014
rhumerus -38.1958 -1.7738 -95.3418
rradius 146.451
rwrist -50.2163
rhand 61.2598 -66.7123
rfingers 7.12502
rthumb 74.8266 -29.7633
lclavicle -3.44022e-014 1.90833e-014
lhumerus -47.1934 -4.17853 105.887
lradius 144.037
lwrist 54.6012
lhand 79.6891 -6.76761
lfingers 7.12502
lthumb 68.007 -262.023
rfemur 0 0 0
rtibia 0
rfoot 0 0
rtoes 0
lfemur -20.6231 -48.2147 -0.150802
ltibia 24.4683
lfoot -29.9511 41.3556
ltoes -59.1415
